<?xml version="1.0" standalone="no"?>
<!DOCTYPE svg PUBLIC "-//W3C//DTD SVG 1.1//EN" "http://www.w3.org/Graphics/SVG/1.1/DTD/svg11.dtd" >
<svg xmlns="http://www.w3.org/2000/svg">
<metadata></metadata>
<defs>
<font id="verbextralight" horiz-adv-x="1208" >
<font-face units-per-em="2048" ascent="1638" descent="-410" />
<missing-glyph horiz-adv-x="591" />
<glyph unicode="&#xfb01;" horiz-adv-x="1150" d="M82 1001v74h151v209q0 209 187 209q84 0 237 -47l-36 -68q-137 37 -195 37q-53 0 -81 -27.5t-28 -93.5v-219h304v-74h-304v-1001h-84v1001h-151zM864 1327v160h107v-160h-107zM872 0v1075h86v-1075h-86z" />
<glyph unicode="&#xfb02;" horiz-adv-x="1175" d="M82 1001v74h151v209q0 209 187 209q84 0 237 -47l-36 -68q-137 37 -195 37q-53 0 -81 -27.5t-28 -93.5v-219h304v-74h-304v-1001h-84v1001h-151zM885 0v1493h86v-1493h-86z" />
<glyph unicode="&#xfb03;" horiz-adv-x="1841" d="M82 1001v74h151v209q0 63 16 106.5t45.5 64.5t61 29.5t72.5 8.5q100 0 287 -61l-37 -68q-178 51 -252 51q-53 0 -81 -27.5t-28 -93.5v-219h304v-74h-304v-1001h-84v1001h-151zM772 1001v74h152v209q0 209 186 209q85 0 238 -47l-37 -68q-137 37 -195 37 q-53 0 -80.5 -27.5t-27.5 -93.5v-219h303v-74h-303v-1001h-84v1001h-152zM1554 1327v160h107v-160h-107zM1563 0v1075h86v-1075h-86z" />
<glyph unicode="&#xfb04;" horiz-adv-x="1865" d="M82 1001v74h151v209q0 63 16 106.5t45.5 64.5t61 29.5t72.5 8.5q100 0 287 -61l-37 -68q-178 51 -252 51q-53 0 -81 -27.5t-28 -93.5v-219h304v-74h-304v-1001h-84v1001h-151zM772 1001v74h152v209q0 209 186 209q85 0 238 -47l-37 -68q-137 37 -195 37 q-53 0 -80.5 -27.5t-27.5 -93.5v-219h303v-74h-303v-1001h-84v1001h-152zM1575 0v1493h86v-1493h-86z" />
<glyph horiz-adv-x="2048" />
<glyph horiz-adv-x="2048" />
<glyph unicode="&#xd;" horiz-adv-x="2048" />
<glyph unicode=" "  horiz-adv-x="591" />
<glyph unicode="&#x09;" horiz-adv-x="591" />
<glyph unicode="&#xa0;" horiz-adv-x="591" />
<glyph unicode="!" horiz-adv-x="520" d="M199 0v186h125v-186h-125zM209 1434h102l-22 -1028h-58z" />
<glyph unicode="&#x22;" horiz-adv-x="796" d="M164 1434h110l-20 -512h-70zM522 1434h111l-23 -512h-67z" />
<glyph unicode="#" horiz-adv-x="1556" d="M117 395v78h311l78 485h-301v78h313l64 398h80l-64 -398h459l63 398h80l-63 -398h303v-78h-316l-75 -485h303v-78h-316l-61 -395h-80l61 395h-458l-62 -395h-82l62 395h-299zM510 473h459l75 485h-458z" />
<glyph unicode="$" horiz-adv-x="1214" d="M117 139l47 74q208 -123 407 -150v648q-54 17 -88.5 29.5t-83.5 33.5t-80.5 40.5t-66.5 49.5t-55 63t-33.5 77.5t-13.5 95.5q0 114 61 196.5t154.5 120.5t205.5 39v184h78v-188q100 -11 206 -45t185 -76l-45 -71q-168 86 -346 108v-588q75 -24 130.5 -46t120.5 -59.5 t106 -80t68.5 -105.5t27.5 -139t-27 -139t-71 -105.5t-103.5 -71.5t-122.5 -42.5t-129 -14.5v-182h-78v187q-118 13 -239 57t-215 100zM240 1104q0 -53 18 -95.5t44.5 -71.5t73.5 -54.5t89 -41.5t106 -36v569q-66 0 -124 -16t-105 -48t-74.5 -85t-27.5 -121zM649 59h4 q70 0 133.5 18t115 52t82 90t30.5 127q0 66 -26.5 119t-79 93t-113 69t-146.5 59v-627z" />
<glyph unicode="%" horiz-adv-x="2017" d="M109 1071q0 188 97 286.5t255 98.5q159 0 256.5 -98.5t97.5 -286.5q0 -187 -97.5 -285t-256.5 -98q-158 0 -255 98t-97 285zM199 1071q0 -147 69 -227t193 -80q125 0 194.5 80t69.5 227q0 149 -69.5 230t-194.5 81q-124 0 -193 -81.5t-69 -229.5zM586 0l757 1434h91 l-758 -1434h-90zM1202 360q0 188 96.5 286.5t255.5 98.5t257 -98.5t98 -286.5q0 -187 -98 -285t-257 -98t-255.5 98t-96.5 285zM1292 360q0 -147 69 -227t193 -80q125 0 195 80t70 227q0 149 -70 230.5t-195 81.5q-124 0 -193 -81.5t-69 -230.5z" />
<glyph unicode="&#x26;" horiz-adv-x="1398" d="M170 346q0 61 18.5 116.5t44.5 96t72.5 84.5t83 71.5t94.5 67.5q-47 48 -76 82t-63.5 84t-51 103.5t-16.5 111.5q0 77 31.5 136.5t81.5 92t103.5 48.5t107.5 16q78 0 144.5 -30.5t110.5 -97.5t44 -159q0 -65 -22 -123.5t-65.5 -108.5t-87 -87.5t-106.5 -81.5l414 -428 q106 180 139 416h93q-14 -111 -56 -241t-112 -241l266 -274h-123l-195 203q-179 -226 -444 -226q-118 0 -214.5 41.5t-156 127t-59.5 200.5zM260 358q0 -47 17 -95.5t53 -96t104.5 -77.5t159.5 -30q234 0 389 205l-436 453q-54 -37 -88.5 -62t-76.5 -62.5t-65.5 -70.5 t-40 -76t-16.5 -88zM369 1163q0 -50 16.5 -98t51.5 -95.5t56 -71t64 -67.5q59 40 97.5 71.5t77.5 74t58 91t19 103.5q0 89 -52.5 146t-158.5 57q-107 0 -168 -59.5t-61 -151.5z" />
<glyph unicode="'" horiz-adv-x="438" d="M164 1434h110l-20 -512h-70z" />
<glyph unicode="(" horiz-adv-x="610" d="M195 20v1385q0 44 1.5 69t7.5 55t18.5 48t33 38.5t53.5 36t77.5 32t107.5 34.5l32 -76q-39 -13 -65.5 -21.5t-52 -20t-41.5 -17.5t-30.5 -18.5t-22 -18.5t-14 -22.5t-9 -25t-4.5 -31.5t-2 -36v-45v-1347v-45t2 -36t4.5 -31.5t9 -25t14 -22.5t22 -18.5t30.5 -18.5 t41.5 -17.5t52 -20t65.5 -21.5l-32 -76q-63 18 -107.5 34.5t-77.5 32t-53.5 36t-33 38.5t-18.5 48t-7.5 55t-1.5 69z" />
<glyph unicode=")" horiz-adv-x="610" d="M84 -217q49 16 80 26.5t59.5 24t43.5 21.5t28.5 25t18 27t8.5 35.5t4 42v54.5v1347v54.5t-4 42t-8.5 35.5t-18 27t-28.5 25t-43.5 21.5t-59.5 24t-80 26.5l35 76q55 -16 95.5 -29.5t72 -29.5t52.5 -29t36 -33.5t23 -36.5t12 -44t5 -50t1 -61v-1385q0 -39 -1 -61t-5 -50 t-12 -44t-23 -36.5t-36 -33.5t-52.5 -29t-72 -29.5t-95.5 -29.5z" />
<glyph unicode="*" horiz-adv-x="997" d="M147 907l293 146l-290 149l47 78l274 -180l-18 317h92l-17 -315l273 176l45 -80l-295 -145l295 -148l-47 -78l-271 179l17 -318h-92l18 318l-276 -177z" />
<glyph unicode="+" horiz-adv-x="1228" d="M109 643v78h464v414h80v-414h467v-78h-467v-412h-80v412h-464z" />
<glyph unicode="," horiz-adv-x="475" d="M158 -201l75 201h-59v186h119l22 -186l-114 -242z" />
<glyph unicode="-" horiz-adv-x="892" d="M178 541v86h537v-86h-537z" />
<glyph unicode="." horiz-adv-x="473" d="M174 0v186h125v-186h-125z" />
<glyph unicode="/" horiz-adv-x="882" d="M55 -184l688 1802h84l-688 -1802h-84z" />
<glyph unicode="0" horiz-adv-x="1316" d="M158 717q0 359 127 549t374 190t373.5 -190t126.5 -549t-126.5 -549.5t-373.5 -190.5t-374 190.5t-127 549.5zM250 717q0 -149 23 -267t71 -207.5t128 -137.5t187 -48t187 48t127.5 137.5t70.5 207.5t23 267t-23 267t-70.5 207t-127.5 137t-187 48t-187 -48t-128 -137 t-71 -207t-23 -267z" />
<glyph unicode="1" horiz-adv-x="694" d="M76 1262l317 172h76v-1434h-90v1329l-260 -137z" />
<glyph unicode="2" horiz-adv-x="1159" d="M127 0v94q0 45 7 87t17 76t31 69.5t37 60t49 56.5t53 50.5t62 49.5t63 45.5t70 48t70 47.5q63 44 103.5 74.5t89 75t76 83.5t46.5 89t19 102q0 119 -87 192.5t-237 73.5q-114 0 -216 -40t-163 -87l-51 68q197 141 426 141q186 0 302 -93.5t116 -256.5q0 -43 -8 -83.5 t-27.5 -78t-38.5 -68t-55 -66t-61 -59t-73 -59t-75.5 -54.5t-83.5 -57.5t-82 -56.5q-64 -45 -103.5 -76t-80 -72.5t-61.5 -81.5t-34.5 -93.5t-13.5 -118.5h799v-82h-885z" />
<glyph unicode="3" horiz-adv-x="1181" d="M104 106l48 74q39 -31 158 -76t241 -45q167 0 280 91.5t113 240.5q0 74 -30.5 136t-79.5 103t-113.5 69t-130 40.5t-131.5 12.5h-64v86h74q108 0 200 33t151 102t59 160q0 112 -86 176.5t-226 64.5q-187 0 -352 -119l-45 66q20 15 50.5 33t83.5 43.5t124.5 42t144.5 16.5 q182 0 289 -96.5t107 -231.5q0 -47 -15.5 -93.5t-48.5 -92.5t-92 -85.5t-139 -65.5q159 -35 260.5 -142t101.5 -256q0 -80 -31 -153.5t-89 -132.5t-150.5 -94.5t-206.5 -35.5q-132 0 -257 41.5t-198 87.5z" />
<glyph unicode="4" horiz-adv-x="1232" d="M88 344v78l713 1012h112v-1008h222v-82h-222v-344h-90v344h-735zM190 426h633v909z" />
<glyph unicode="5" horiz-adv-x="1155" d="M127 104l45 74q30 -20 71 -41.5t127 -49.5t160 -28q104 0 194.5 46.5t147 135.5t56.5 201q0 156 -103 262.5t-276 106.5q-166 0 -320 -96l-47 20l74 662v37h709v-82h-637l-49 -537q126 78 278 78q206 0 335.5 -131t129.5 -322q0 -89 -31.5 -171t-90.5 -147.5t-153.5 -105 t-209.5 -39.5q-197 0 -410 127z" />
<glyph unicode="6" horiz-adv-x="1236" d="M152 567q-1 175 38.5 323t106.5 250.5t156.5 175t188 106.5t200.5 34q44 0 88 -5.5t66 -10.5l22 -6l-23 -78q-67 18 -149 18q-101 0 -196.5 -39.5t-178.5 -116t-141.5 -204t-77.5 -289.5q22 28 54 56t82 59.5t120.5 51t148.5 19.5q110 0 198.5 -37.5t143.5 -101.5 t84 -145t29 -172q0 -128 -55 -236t-162.5 -175t-247.5 -67q-98 0 -180.5 34t-139.5 91t-97 133.5t-58.5 160t-19.5 171.5zM244 567q0 -98 23.5 -186t70 -161.5t126.5 -117t183 -43.5q72 0 134 22.5t105.5 61t74.5 89.5t46 108t15 117q0 68 -20.5 132t-61.5 119t-113 88 t-165 33q-79 0 -152 -24t-125 -61.5t-88.5 -79t-52.5 -80.5v-17z" />
<glyph unicode="7" horiz-adv-x="1011" d="M76 1352v82h876v-66q-11 -14 -30.5 -39.5t-75 -108.5t-105.5 -170.5t-112 -217t-106 -255.5t-74.5 -280t-30.5 -297h-99q0 126 27.5 266.5t66 258t96.5 246t103 213.5t102.5 178.5t78 124t45.5 65.5h-762z" />
<glyph unicode="8" horiz-adv-x="1259" d="M137 360q0 270 369 412q-287 105 -287 342q0 156 116.5 249t293.5 93t294 -93t117 -249q0 -236 -288 -342q370 -142 370 -412q0 -119 -69.5 -207.5t-180 -132t-243.5 -43.5t-243.5 43.5t-179.5 132t-69 207.5zM231 358q0 -92 55 -161t144.5 -103.5t198.5 -34.5 q169 0 284 80.5t115 218.5q0 59 -25 111.5t-62.5 89.5t-93.5 71t-106 56t-112 43q-62 -21 -112 -43t-106 -56t-93.5 -71t-62 -89.5t-24.5 -111.5zM309 1110q0 -53 23.5 -98t55 -74.5t80.5 -56t82.5 -39t78.5 -27.5q45 15 78.5 27.5t83 39t81 56t55 74.5t23.5 98 q0 111 -92 187.5t-229 76.5q-136 0 -228 -76.5t-92 -187.5z" />
<glyph unicode="9" horiz-adv-x="1236" d="M125 979q0 128 55 236t163 174.5t249 66.5q98 0 180.5 -34t139 -91t96 -133.5t58 -160t19.5 -171.5q1 -175 -38.5 -323t-106.5 -250.5t-156.5 -175t-188 -106.5t-200.5 -34q-44 0 -88 5.5t-66 11.5l-22 6l25 78q65 -19 147 -19q101 0 196 39t177.5 115.5t141 204 t77.5 289.5q-22 -29 -53.5 -56.5t-81 -59t-120 -50.5t-148.5 -19q-110 0 -198.5 37.5t-143.5 102t-84 145.5t-29 172zM215 977q0 -69 20.5 -132.5t61.5 -118.5t113 -88.5t165 -33.5q151 0 265.5 78t152.5 168v16q0 98 -23.5 186t-69.5 161.5t-125.5 117t-182.5 43.5 q-90 0 -163.5 -34t-119 -91t-70 -127t-24.5 -145z" />
<glyph unicode=":" horiz-adv-x="481" d="M178 0v186h125v-186h-125zM178 733v187h125v-187h-125z" />
<glyph unicode=";" horiz-adv-x="516" d="M178 -201l76 201h-59v186h118l23 -186l-115 -242zM195 733v187h122v-187h-122z" />
<glyph unicode="&#x3c;" horiz-adv-x="1228" d="M80 645v78l1010 436v-98l-904 -377l904 -377v-98z" />
<glyph unicode="=" horiz-adv-x="1228" d="M109 467v78h1011v-78h-1011zM109 823v78h1011v-78h-1011z" />
<glyph unicode="&#x3e;" horiz-adv-x="1228" d="M137 209v98l903 377l-903 377v98l1010 -436v-78z" />
<glyph unicode="?" horiz-adv-x="1017" d="M88 1311q82 57 196.5 101t231.5 44q74 0 142 -20t125 -59.5t91.5 -105t34.5 -147.5q0 -80 -33 -147t-93 -115t-135.5 -82.5t-170.5 -58.5l-10 -315h-78l-12 370q103 24 178.5 51.5t138.5 68t95 96.5t32 128q0 83 -43.5 141.5t-111.5 85.5t-152 27q-165 0 -373 -125z M367 0v186h122v-186h-122z" />
<glyph unicode="@" horiz-adv-x="2002" d="M139 518q0 186 63 348t176.5 281.5t283 188.5t372.5 69q204 0 365.5 -65.5t266.5 -183.5t160 -279.5t56 -356.5q-2 -248 -104.5 -401.5t-272.5 -153.5q-54 0 -96 15.5t-66.5 39t-41.5 56.5t-23.5 62.5t-9.5 62.5q-166 -152 -350 -152q-41 0 -79.5 8t-78 29.5t-69 54 t-48 85.5t-18.5 120q0 80 25.5 141t69.5 97t96.5 53.5t111.5 17.5q36 0 87.5 -7t89 -14t92.5 -19t71 -15v129q0 119 -44.5 171t-164.5 52q-140 0 -328 -86l-45 74q91 41 192.5 65.5t184.5 24.5q289 0 289 -285v-462q0 -29 0.5 -46t3.5 -46t8.5 -46.5t16.5 -39.5t27 -34.5 t40.5 -21t56.5 -8.5q34 0 70.5 13t77.5 47t73 86t53 138.5t21 194.5q0 175 -47.5 320.5t-141 255t-242 170.5t-339.5 61q-189 0 -344.5 -65.5t-255 -177.5t-153.5 -257.5t-54 -308.5q0 -167 55 -315t153.5 -257t242.5 -172t313 -63q71 0 138 9.5t111.5 23.5t79 28t50.5 24 l16 9l50 -61q-6 -5 -18 -12t-53.5 -26.5t-88.5 -34t-123.5 -26.5t-157.5 -12q-189 0 -349.5 69t-270 188t-171 281.5t-61.5 346.5zM713 344q0 -111 59.5 -164t155.5 -53q98 0 178 44t162 122v242q-20 3 -83 15t-121.5 20t-105.5 8q-67 0 -116.5 -19.5t-76.5 -54t-39.5 -74 t-12.5 -86.5z" />
<glyph unicode="A" horiz-adv-x="1372" d="M74 0l565 1434h94l565 -1434h-96l-153 395h-727l-152 -395h-96zM354 477h664l-332 856z" />
<glyph unicode="B" horiz-adv-x="1359" d="M225 0v1434h447q222 0 345.5 -92t123.5 -259q0 -74 -25.5 -136t-65.5 -100t-81.5 -60.5t-81.5 -28.5q40 -6 80.5 -19.5t88 -42.5t82.5 -69t59 -104t24 -142q0 -180 -116.5 -280.5t-330.5 -100.5h-549zM315 82h467q173 0 262 85.5t89 223.5q0 158 -115.5 240t-333.5 82 h-369v-631zM315 795h357q109 0 193 29t136 94t52 159q0 125 -91.5 200t-275.5 75h-371v-557z" />
<glyph unicode="C" horiz-adv-x="1316" d="M154 717q0 153 29.5 277.5t80.5 209.5t121 142.5t148.5 83.5t164.5 26q134 0 259 -59.5t253 -153.5l-57 -63q-51 37 -91.5 63t-104 60t-130.5 52.5t-131 18.5q-198 0 -323 -175t-125 -482t125 -482.5t323 -175.5q64 0 131 18.5t130.5 53t103.5 60.5t92 63l57 -64 q-128 -94 -253 -153.5t-259 -59.5q-86 0 -164.5 26t-148.5 84t-121 142.5t-80.5 209.5t-29.5 278z" />
<glyph unicode="D" horiz-adv-x="1421" d="M225 0v1434h398q150 0 266.5 -40.5t202 -125.5t131 -224t45.5 -327t-45.5 -327t-131 -224t-202 -125.5t-266.5 -40.5h-398zM315 82h308q285 0 415.5 155.5t130.5 479.5t-130.5 479.5t-415.5 155.5h-308v-1270z" />
<glyph unicode="E" d="M225 0v1434h842v-82h-752v-594h625v-82h-625v-594h764v-82h-854z" />
<glyph unicode="F" horiz-adv-x="1148" d="M225 0v1434h842v-82h-752v-594h605v-82h-605v-676h-90z" />
<glyph unicode="G" horiz-adv-x="1431" d="M154 717q0 153 29.5 277.5t80.5 209.5t121 142.5t148.5 83.5t164.5 26q250 0 533 -229l-60 -66q-56 42 -92 67t-105 65t-139 60.5t-139 20.5q-198 0 -323 -175t-125 -482q0 -304 125.5 -481t322.5 -177q57 0 119 18.5t108 42t99.5 61t80.5 60t64 54.5v379h-432v82h525 v-756h-93v186q-244 -209 -469 -209q-88 0 -166.5 26t-148 84t-120 142.5t-80 209.5t-29.5 278z" />
<glyph unicode="H" horiz-adv-x="1441" d="M225 0v1434h90v-641h811v641h91v-1434h-91v711h-811v-711h-90z" />
<glyph unicode="I" horiz-adv-x="540" d="M225 0v1434h90v-1434h-90z" />
<glyph unicode="J" horiz-adv-x="540" d="M-16 -188q39 13 65.5 21.5t52 20t41.5 17.5t30.5 18.5t22 18.5t14 22.5t9 25t4.5 31.5t2 36v45v1366h90v-1366q0 -37 -0.5 -54.5t-2 -46t-5.5 -41t-11.5 -34t-18 -32t-27 -26.5t-38 -26t-50.5 -23.5t-64.5 -24.5t-81.5 -24z" />
<glyph unicode="K" horiz-adv-x="1296" d="M225 0v1434h90v-885l748 885h108l-587 -695l665 -739h-112l-609 674l-213 -254v-420h-90z" />
<glyph unicode="L" horiz-adv-x="1110" d="M225 0v1434h90v-1352h729v-82h-819z" />
<glyph unicode="M" horiz-adv-x="1710" d="M225 0v1434h99l530 -1092l530 1092h101v-1434h-90v1272l-502 -1032h-76l-502 1030v-1270h-90z" />
<glyph unicode="N" horiz-adv-x="1474" d="M225 0v1434h97l837 -1299v1299h90v-1434h-96l-838 1296v-1296h-90z" />
<glyph unicode="O" horiz-adv-x="1488" d="M154 717q0 126 19 233.5t63.5 202t111.5 161t167.5 104.5t227.5 38t228 -38t168.5 -104.5t112 -161t64 -202.5t19.5 -233q0 -124 -19.5 -231.5t-64 -202t-112 -161.5t-168.5 -106t-228 -39t-227.5 39t-167.5 106t-111.5 162t-63.5 202t-19 231zM248 717q0 -112 15 -207 t51.5 -180t92 -143.5t141 -93t195.5 -34.5t196 34.5t142.5 93t92.5 143.5t51.5 180t15.5 207t-15.5 207t-51.5 179.5t-92.5 143.5t-142.5 93t-196 34t-195.5 -34t-141 -93t-92 -143.5t-51.5 -179.5t-15 -207z" />
<glyph unicode="P" horiz-adv-x="1294" d="M225 0v1434h461q85 0 156.5 -12t138 -42t112.5 -76.5t73.5 -121t27.5 -170.5t-27.5 -170.5t-73.5 -121t-112.5 -76.5t-138 -42t-156.5 -12h-371v-590h-90zM315 672h385q87 0 157 18t126 57t86.5 106t30.5 159t-30.5 159t-86.5 106t-126 57t-157 18h-385v-680z" />
<glyph unicode="Q" horiz-adv-x="1488" d="M154 717q0 126 19 233.5t63.5 202t111.5 161t167.5 104.5t227.5 38t228 -38t168.5 -104.5t112 -161t64 -202.5t19.5 -233q0 -143 -27 -264t-83.5 -221t-152.5 -164t-226 -82l260 -213l-66 -68l-297 272q-127 0 -227.5 39t-167.5 106t-111.5 162t-63.5 202t-19 231z M248 717q0 -112 15 -207t51.5 -180t92 -143.5t141 -93t195.5 -34.5t196 34.5t142.5 93t92.5 143.5t51.5 180t15.5 207t-15.5 207t-51.5 179.5t-92.5 143.5t-142.5 93t-196 34t-195.5 -34t-141 -93t-92 -143.5t-51.5 -179.5t-15 -207z" />
<glyph unicode="R" horiz-adv-x="1380" d="M225 0v1434h506q107 0 194.5 -20t160.5 -64t114 -123t41 -189q0 -98 -32.5 -172t-91.5 -119t-130.5 -69.5t-159.5 -32.5l416 -645h-106l-402 643h-420v-643h-90zM315 725h418q192 0 303 76t111 237q0 109 -54 181t-141.5 102.5t-206.5 30.5h-430v-627z" />
<glyph unicode="S" horiz-adv-x="1224" d="M121 139l47 74q111 -64 241 -109t248 -45q70 0 133.5 18t115 52t82 90t30.5 127q0 59 -22.5 108t-58 84t-94 67t-115 54t-136.5 48q-58 18 -91 29.5t-86 33t-84 40.5t-69 50t-58.5 64t-35 78t-14.5 98q0 87 35.5 156.5t95.5 112t135 65t158 22.5q111 0 240 -36.5 t226 -88.5l-45 -71q-97 51 -213.5 82.5t-210.5 31.5q-66 0 -124 -16t-105 -48t-74.5 -85t-27.5 -121q0 -57 21.5 -102t49 -73t85.5 -56t97.5 -41.5t118.5 -38.5q59 -18 98.5 -32t95.5 -37.5t93.5 -46.5t79 -57.5t66 -72t41 -88.5t16.5 -109q0 -95 -40.5 -169t-108 -117 t-146 -65t-162.5 -22q-132 0 -273.5 48t-254.5 114z" />
<glyph unicode="T" horiz-adv-x="1150" d="M61 1352v82h1029v-82h-469v-1352h-91v1352h-469z" />
<glyph unicode="U" horiz-adv-x="1423" d="M213 487v947h90v-940q0 -64 7 -116t24 -103t48 -89t75 -67.5t109 -44.5t147 -15q97 0 169.5 22.5t117.5 60.5t72.5 95.5t37.5 118.5t10 138v940h90v-947q0 -112 -26.5 -201.5t-83 -160.5t-155 -109.5t-232.5 -38.5q-109 0 -195 26t-142.5 71t-93.5 110t-53 139.5 t-16 163.5z" />
<glyph unicode="V" horiz-adv-x="1368" d="M72 1434h96l516 -1334l516 1334h96l-565 -1434h-94z" />
<glyph unicode="W" horiz-adv-x="1890" d="M92 1434h96l355 -1342l350 1342h104l351 -1338l356 1338h96l-397 -1434h-111l-348 1307l-346 -1307h-111z" />
<glyph unicode="X" horiz-adv-x="1230" d="M70 0l503 709l-479 725h105l415 -652l418 652h105l-480 -723l504 -711h-108l-439 637l-436 -637h-108z" />
<glyph unicode="Y" horiz-adv-x="1263" d="M57 1434h103l471 -793h2l471 793h102l-530 -869v-565h-90v569z" />
<glyph unicode="Z" horiz-adv-x="1245" d="M98 0v78l918 1274h-871v82h977v-76l-921 -1276h932v-82h-1035z" />
<glyph unicode="[" horiz-adv-x="673" d="M207 -295v2013h379v-82h-289v-1849h289v-82h-379z" />
<glyph unicode="\" horiz-adv-x="882" d="M55 1618h82l688 -1802h-82z" />
<glyph unicode="]" horiz-adv-x="673" d="M88 -213h289v1849h-289v82h379v-2013h-379v82z" />
<glyph unicode="^" horiz-adv-x="1228" d="M176 739l393 695h86l396 -695h-103l-336 617l-338 -617h-98z" />
<glyph unicode="_" horiz-adv-x="1443" d="M178 -184h1088v-74h-1088v74z" />
<glyph unicode="`" horiz-adv-x="409" d="M0 1493h160l250 -256h-76z" />
<glyph unicode="a" horiz-adv-x="1155" d="M119 315q0 92 30.5 162.5t82.5 111.5t113.5 61t131.5 20q56 0 131.5 -11.5t167.5 -30.5t109 -22v150q0 136 -54 200t-194 64q-59 0 -135 -16.5t-127.5 -33t-143.5 -48.5l-38 73q277 103 444 103q156 0 245 -78.5t89 -245.5v-774h-86v154q-196 -177 -416 -177 q-49 0 -95 9.5t-93.5 33.5t-82.5 61t-57 97t-22 137zM209 313q0 -130 72 -191t194 -61q123 0 220.5 49t189.5 136v291q-7 1 -93.5 18t-152.5 26t-123 9q-86 0 -148 -23t-95.5 -63.5t-48.5 -87.5t-15 -103z" />
<glyph unicode="b" d="M193 0v1493h86v-571q185 176 393 176q83 0 153.5 -31t127.5 -95t89.5 -175.5t32.5 -259.5t-32.5 -259t-89.5 -175t-127.5 -95t-153.5 -31q-119 0 -219 51.5t-174 125.5v-154h-86zM279 250q73 -83 177.5 -139t219.5 -56q151 0 230 128t79 354q0 227 -79 355t-230 128 q-115 0 -219 -56.5t-178 -140.5v-573z" />
<glyph unicode="c" horiz-adv-x="1067" d="M131 539q0 133 37.5 241.5t101 176.5t143.5 104.5t169 36.5q24 0 49.5 -3t46.5 -7.5t46.5 -13t42.5 -14.5t42.5 -18.5t37.5 -18.5t36 -20.5t31 -18.5t29.5 -18.5t23.5 -15.5l-49 -65q-1 0 -25.5 16t-38.5 24t-44 24.5t-55 27t-56 21.5t-62.5 16.5t-61.5 5.5 q-149 0 -250.5 -131.5t-101.5 -349.5t101.5 -351t250.5 -133q30 0 61.5 5.5t62.5 16.5t56 21.5t55 27t44 24.5t38.5 24t25.5 16l49 -65q-1 -1 -23.5 -15.5t-29.5 -18.5t-31 -18.5t-36 -20.5t-37.5 -18.5t-42.5 -18.5t-42.5 -14.5t-46.5 -13t-46.5 -7.5t-49.5 -3 q-89 0 -169 37t-143.5 105.5t-101 177.5t-37.5 242z" />
<glyph unicode="d" d="M133 537q0 149 32.5 260t89.5 175t127.5 95t154.5 31q208 0 393 -176v571h86v-1493h-86v154q-181 -177 -393 -177q-84 0 -154.5 31t-127.5 95t-89.5 175t-32.5 259zM223 537q0 -226 79 -354t230 -128q114 0 218 56.5t180 140.5v571q-76 84 -180 140.5t-218 56.5 q-151 0 -230 -128t-79 -355z" />
<glyph unicode="e" horiz-adv-x="1167" d="M131 539q0 134 37 241.5t101.5 176t150.5 105t186 36.5q201 0 312.5 -127.5t111.5 -331.5q0 -33 -2.5 -65.5t-5.5 -49.5l-2 -16h-797q7 -202 106 -327.5t246 -125.5q58 0 118 15.5t118.5 44.5t91.5 48t78 48l57 -66q-3 -2 -42 -25t-50 -29t-50 -26.5t-59 -28t-57.5 -22 t-65.5 -20.5t-64.5 -11.5t-71.5 -5.5q-91 0 -171.5 37t-142 106t-97.5 177t-36 242zM223 584h717v28q0 203 -84 302q-90 106 -254 106t-266 -118.5t-113 -317.5z" />
<glyph unicode="f" horiz-adv-x="679" d="M82 1001v74h151v209q0 63 16 106.5t45.5 64.5t61 29.5t72.5 8.5q100 0 287 -61l-37 -68q-178 51 -252 51q-53 0 -81 -27.5t-28 -93.5v-219h304v-74h-304v-1001h-84v1001h-151z" />
<glyph unicode="g" d="M133 537q0 149 32.5 260t89.5 175t127.5 95t154.5 31q208 0 393 -176v153h86v-1175q0 -338 -373 -338q-95 0 -222 20t-239 51l23 84q269 -77 440 -77q285 0 285 260v254q-181 -177 -393 -177q-84 0 -154.5 31t-127.5 95t-89.5 175t-32.5 259zM223 537q0 -226 79 -354 t230 -128q114 0 218 56.5t180 140.5v571q-76 84 -180 140.5t-218 56.5q-151 0 -230 -128t-79 -355z" />
<glyph unicode="h" horiz-adv-x="1218" d="M193 0v1493h86v-586q49 39 109.5 76.5t162 76t188.5 38.5q295 0 295 -326v-772h-86v764q0 56 -10 100t-33.5 80.5t-66.5 56t-105 19.5q-81 0 -179 -39t-163 -81t-112 -83v-817h-86z" />
<glyph unicode="i" horiz-adv-x="471" d="M184 1327v160h107v-160h-107zM193 0v1075h86v-1075h-86z" />
<glyph unicode="j" horiz-adv-x="471" d="M-49 -346q49 16 80 26.5t59.5 24.5t43.5 21.5t28.5 25t18 27.5t8.5 36t4 43v56v1161h86v-1161q0 -60 -1.5 -86.5t-10 -65.5t-25.5 -56.5t-51 -42t-84 -42.5t-125 -39zM182 1327v160h107v-160h-107z" />
<glyph unicode="k" horiz-adv-x="1017" d="M193 0v1493h86v-1061l522 643h98l-364 -438l432 -637h-95l-391 571l-202 -245v-326h-86z" />
<glyph unicode="l" horiz-adv-x="495" d="M205 0v1493h86v-1493h-86z" />
<glyph unicode="m" horiz-adv-x="1865" d="M193 0v1075h86v-172q81 75 190.5 135t222.5 60q69 0 122 -20t83 -53.5t46 -66.5t24 -71q33 33 74 65t98 67.5t125 57t133 21.5q284 0 284 -326v-772h-86v764q0 256 -206 256q-107 0 -218.5 -68.5t-193.5 -152.5v-799h-84v764q0 256 -209 256q-104 0 -211.5 -64.5 t-193.5 -148.5v-807h-86z" />
<glyph unicode="n" horiz-adv-x="1218" d="M193 0v1075h86v-168q49 39 109.5 76.5t162 76t188.5 38.5q295 0 295 -326v-772h-86v764q0 56 -10 100t-33.5 80.5t-66.5 56t-105 19.5q-81 0 -179 -39t-163 -81t-112 -83v-817h-86z" />
<glyph unicode="o" d="M131 537q0 262 122.5 411.5t350.5 149.5q227 0 350 -149.5t123 -411.5t-123 -411t-350 -149q-228 0 -350.5 149t-122.5 411zM221 537q0 -227 94 -354.5t289 -127.5t289 127.5t94 354.5t-94 355t-289 128t-289 -128t-94 -355z" />
<glyph unicode="p" d="M193 -418v1493h86v-153q181 176 393 176q83 0 153.5 -31t127.5 -95t89.5 -175.5t32.5 -259.5t-32.5 -259t-89.5 -175t-127.5 -95t-153.5 -31q-119 0 -219 51.5t-174 125.5v-572h-86zM279 250q73 -83 177.5 -139t219.5 -56q151 0 230 128t79 354q0 227 -79 355t-230 128 q-115 0 -219 -56.5t-178 -140.5v-573z" />
<glyph unicode="q" d="M133 537q0 149 32.5 260t89.5 175t127.5 95t154.5 31q208 0 393 -176v153h86v-1493h-86v572q-181 -177 -393 -177q-84 0 -154.5 31t-127.5 95t-89.5 175t-32.5 259zM223 537q0 -226 79 -354t230 -128q114 0 218 56.5t180 140.5v571q-76 84 -180 140.5t-218 56.5 q-151 0 -230 -128t-79 -355z" />
<glyph unicode="r" horiz-adv-x="747" d="M193 0v1075h86v-233q6 15 18.5 38.5t47 64.5t77.5 73q42 32 114 54q56 17 119 16q17 0 35 -1v-83q-75 0 -138.5 -18.5t-104.5 -48t-73.5 -65.5t-49.5 -72t-28 -65.5t-14 -48.5l-3 -18v-668h-86z" />
<glyph unicode="s" horiz-adv-x="1019" d="M113 104l47 70q87 -49 188.5 -84t190.5 -35q72 0 134 20.5t106 68.5t44 116q0 26 -8 50t-18 42.5t-32.5 37t-37 30t-46.5 25.5t-46.5 21t-51.5 18.5t-47 14.5t-47 13q-44 12 -71 20.5t-69 24t-68 30.5t-57 39t-48 50.5t-29 63t-12 79.5q0 90 48.5 154.5t126.5 94.5 t175 30q178 0 379 -105l-47 -67q-184 94 -336 94q-114 0 -188 -52t-74 -145q0 -31 10.5 -58t26.5 -47t40.5 -37.5t48 -29t53.5 -22t52 -17t49 -13.5q13 -3 19 -5q200 -53 295.5 -130t95.5 -202q0 -74 -32 -130.5t-85.5 -89.5t-116 -49t-130.5 -16q-206 0 -432 127z" />
<glyph unicode="t" horiz-adv-x="733" d="M82 1001v74h151v271l84 40v-311h299v-74h-299v-825q0 -66 28 -93.5t81 -27.5q43 0 111.5 20t115.5 40l37 -70q-157 -68 -262 -68q-39 0 -70.5 8.5t-61.5 29.5t-46.5 64.5t-16.5 106.5v815h-151z" />
<glyph unicode="u" horiz-adv-x="1218" d="M184 303v772h86v-764q0 -56 10 -100t33.5 -80.5t66.5 -56t105 -19.5q79 0 177 39t164 81t114 83v817h86v-1075h-86v166q-35 -27 -77.5 -54t-106.5 -60t-137.5 -54t-141.5 -21q-84 0 -143.5 27t-91 75t-45 102.5t-13.5 121.5z" />
<glyph unicode="v" horiz-adv-x="1105" d="M76 1075h96l381 -975l379 975h98l-436 -1075h-82z" />
<glyph unicode="w" horiz-adv-x="1630" d="M86 1075h92l295 -975l293 975h98l293 -975l295 975h92l-342 -1075h-92l-295 967l-295 -967h-94z" />
<glyph unicode="x" horiz-adv-x="1142" d="M61 0l463 541l-440 534h111l376 -471l375 471h113l-443 -532l465 -543h-114l-398 477l-393 -477h-115z" />
<glyph unicode="y" horiz-adv-x="1105" d="M76 1075h96l381 -971l379 971h98l-610 -1493h-98l188 424z" />
<glyph unicode="z" horiz-adv-x="995" d="M100 0v80l682 917h-661v78h766v-80l-680 -917h680v-78h-787z" />
<glyph unicode="{" horiz-adv-x="806" d="M78 653v119q41 0 73 7t61.5 24.5t45.5 47.5t24 76t-3 109l-27 191q-16 114 0.5 202.5t67 154t143 100t223.5 34.5h37v-82h-37q-90 0 -156 -20t-104 -55t-60.5 -83.5t-25 -105t3.5 -119.5l29 -202q38 -281 -172 -338q211 -57 172 -338l-29 -203q-6 -63 -3.5 -119.5 t25 -105t60.5 -83.5t104 -55t156 -20h37v-82h-37q-131 0 -223.5 34.5t-143 100.5t-67 154.5t-0.5 202.5l27 190q10 77 -1 130.5t-41.5 81.5t-69 40t-89.5 12z" />
<glyph unicode="|" horiz-adv-x="497" d="M209 -252v1927h80v-1927h-80z" />
<glyph unicode="}" horiz-adv-x="806" d="M84 -211h39q392 0 338 383l-27 203q-39 280 170 338q-208 58 -170 338l27 202q54 383 -338 383h-39v82h39q257 0 360.5 -129t71.5 -362l-27 -191q-10 -77 1.5 -130.5t42 -81.5t68.5 -40t89 -12v-119q-108 0 -164 -58.5t-35 -205.5l27 -190q16 -114 -0.5 -202.5 t-67 -154.5t-143 -100.5t-223.5 -34.5h-39v82z" />
<glyph unicode="~" horiz-adv-x="1228" d="M82 483q99 195 285 195q68 0 139.5 -24t122.5 -52t117.5 -52t125.5 -24q56 0 105 29.5t92 110.5l76 -31q-96 -195 -285 -195q-68 0 -139.5 24t-122.5 52t-117.5 52t-124.5 24q-57 0 -104 -28.5t-92 -110.5z" />
<glyph unicode="&#xa1;" horiz-adv-x="520" d="M199 1247v187h125v-187h-125zM209 0l20 1028h60l22 -1028h-102z" />
<glyph unicode="&#xa2;" horiz-adv-x="1140" d="M147 719q0 129 35 234.5t95 174t136 107t162 43.5v156h78v-160q31 -4 62 -12t62 -21t54 -23.5t53.5 -28.5t44.5 -26.5t42.5 -27.5t32.5 -21l-54 -63q-2 1 -15 10t-20 13.5t-23 15t-27.5 17t-30 17t-33 18t-34.5 16t-37.5 15t-37.5 12t-39 9.5v-952q24 4 49 12t46 16 t45.5 20t40.5 21t38 22.5t31.5 20t27.5 18.5t19 13l54 -63q-2 -1 -22.5 -15t-27 -18t-28.5 -18.5t-33 -20.5t-34 -18.5t-38.5 -19t-38.5 -16.5t-42 -15.5t-42 -10.5t-45 -8v-162h-78v158q-86 5 -162 44t-136 107.5t-95 174.5t-35 235zM240 719q0 -213 95.5 -344t239.5 -139 v964q-144 -8 -239.5 -138.5t-95.5 -342.5z" />
<glyph unicode="&#xa3;" horiz-adv-x="1110" d="M143 0v72q10 9 26 25t58 67t74.5 103t60.5 128t31 148h-227v82h221q-9 52 -33 103t-51 92.5t-53 85t-43 97t-17 111.5q0 151 106 246.5t277 95.5q74 0 156 -22t133.5 -44.5t120.5 -58.5l-51 -71q-223 114 -363 114q-136 0 -213 -77.5t-77 -188.5q0 -51 17.5 -100.5 t43.5 -92.5t53.5 -86t51.5 -96.5t32 -107.5h342v-82h-336q-3 -74 -30.5 -152t-67 -141t-68.5 -101.5t-55 -66.5h696v-82h-815z" />
<glyph unicode="&#xa5;" horiz-adv-x="1316" d="M84 1434h102l471 -793h2l471 793h103l-449 -732h332v-77h-379l-35 -60v-112h414v-78h-414v-375h-90v375h-413v78h413v116l-34 56h-379v77h329l4 -2z" />
<glyph unicode="&#xa6;" horiz-adv-x="501" d="M211 -252v846h80v-846h-80zM211 829v846h80v-846h-80z" />
<glyph unicode="&#xa7;" horiz-adv-x="1095" d="M139 688q0 97 61.5 156.5t161.5 83.5q-84 40 -132 98.5t-48 151.5q0 133 101 205.5t252 72.5q176 0 376 -104l-47 -68q-181 94 -334 94q-115 0 -190.5 -51.5t-75.5 -144.5q0 -43 20.5 -78.5t48 -57.5t71 -41t73 -28t71.5 -20q13 -3 19 -5q200 -53 295.5 -129.5 t95.5 -201.5q0 -98 -62 -157.5t-165 -84.5q182 -82 182 -248q0 -133 -99.5 -205.5t-250.5 -72.5q-179 0 -379 104l47 68q186 -95 336 -95q114 0 188 52t74 145q0 31 -10.5 58t-26.5 47t-40.5 37.5t-48 29t-53.5 22t-52 17t-49 13.5q-13 3 -19 5q-200 53 -295.5 130 t-95.5 202zM225 690q0 -26 8 -50t18 -42.5t32.5 -37t37 -30t46.5 -25.5t46.5 -21t51.5 -18.5t47 -14.5t47 -13l49 -14q110 5 187 54t77 140q0 38 -13.5 70t-42.5 57t-55.5 42.5t-71.5 34t-70.5 24.5t-70.5 21q-8 2 -11 3l-52 15q-69 -3 -125.5 -23.5t-95.5 -65t-39 -106.5z " />
<glyph unicode="&#xa8;" horiz-adv-x="450" d="M0 1257v160h125v-160h-125zM328 1257v160h123v-160h-123z" />
<glyph unicode="&#xa9;" horiz-adv-x="1757" d="M150 717q0 156 49 290.5t140 234.5t230.5 157t311.5 57t311 -57t230 -157t139.5 -234.5t48.5 -290.5t-48.5 -290.5t-139.5 -234.5t-230 -157.5t-311 -57.5t-311.5 57.5t-230.5 157.5t-140 234.5t-49 290.5zM231 717q0 -141 43 -261t123.5 -209.5t204.5 -140.5t277 -51 q154 0 278.5 51t205 140.5t124 209.5t43.5 261t-43.5 261t-124 209.5t-205 140t-278.5 50.5q-153 0 -277 -50.5t-204.5 -140t-123.5 -209.5t-43 -261zM510 715q0 212 101.5 329t254.5 117q72 0 143 -23t109 -45.5t90 -58.5l-63 -73q-38 30 -68.5 49.5t-89 40t-117.5 20.5 q-114 0 -184 -97.5t-70 -258.5q0 -159 70 -256t184 -97q59 0 118 20.5t88.5 39t68.5 47.5l63 -72q-52 -36 -90 -58.5t-109 -45.5t-143 -23q-152 0 -254 117t-102 328z" />
<glyph unicode="&#xaa;" horiz-adv-x="874" d="M137 979q0 106 66.5 159.5t165.5 53.5q34 0 77.5 -6t106.5 -18.5t65 -12.5v80q0 76 -33 111.5t-116 35.5q-77 0 -254 -57l-31 61q183 62 291 62q223 0 223 -205v-455h-80v91q-114 -105 -258 -105q-41 0 -78.5 11t-71 33.5t-53.5 64t-20 96.5zM221 981q0 -70 42 -103.5 t114 -33.5q123 0 241 102v156q-152 31 -217 31q-96 0 -138 -42.5t-42 -109.5z" />
<glyph unicode="&#xab;" horiz-adv-x="1409" d="M90 551v65l627 467v-100l-533 -399l533 -400v-100zM643 551v65l627 467v-100l-533 -399l533 -400v-100z" />
<glyph unicode="&#xac;" horiz-adv-x="1228" d="M33 643v78h1163v-537h-90v459h-1073z" />
<glyph unicode="&#xad;" horiz-adv-x="892" d="M178 541v86h537v-86h-537z" />
<glyph unicode="&#xae;" horiz-adv-x="1097" d="M143 1024q0 178 108.5 294t297.5 116q188 0 295.5 -116t107.5 -294t-107.5 -294t-295.5 -116q-189 0 -297.5 116t-108.5 294zM217 1024q0 -152 85 -247t247 -95q161 0 245.5 95t84.5 247t-84.5 247t-245.5 95q-162 0 -247 -95t-85 -247zM397 823v412h191q64 0 101.5 -33 t37.5 -86q0 -41 -28.5 -72.5t-73.5 -42.5l96 -178h-76l-90 174h-90v-174h-68zM465 1061h121q71 0 71 55q0 58 -67 58h-125v-113z" />
<glyph unicode="&#xaf;" horiz-adv-x="577" d="M0 1288v74h578v-74h-578z" />
<glyph unicode="&#xb0;" horiz-adv-x="917" d="M131 1106q0 135 96.5 231.5t231.5 96.5t231 -96.5t96 -231.5t-96 -231.5t-231 -96.5t-231.5 96.5t-96.5 231.5zM203 1106q0 -106 75 -181t181 -75t181 75t75 181t-75 181t-181 75t-181 -75t-75 -181z" />
<glyph unicode="&#xb1;" horiz-adv-x="1228" d="M109 0v78h1011v-78h-1011zM109 629v78h458v362h82v-362h471v-78h-471v-365h-82v365h-458z" />
<glyph unicode="&#xb2;" horiz-adv-x="782" d="M94 788v64q0 27 5 52t10.5 45t20 42t23 36t31.5 34.5t33 30.5t39.5 30.5t39.5 27t44 28.5t43 28q50 33 80.5 55t63 53t48 63.5t15.5 68.5q0 64 -51 104.5t-140 40.5q-69 0 -134 -24.5t-103 -53.5l-43 58q137 92 284 92q122 0 196.5 -59t74.5 -158q0 -26 -5 -50.5 t-17.5 -47.5t-24 -41t-34.5 -39.5t-37.5 -34.5t-45.5 -34.5t-46.5 -31.5t-51.5 -33t-50 -32q-96 -62 -137 -111.5t-41 -130.5h492v-72h-582z" />
<glyph unicode="&#xb3;" horiz-adv-x="792" d="M80 858l43 62q36 -23 108 -48.5t146 -25.5q98 0 163.5 49.5t65.5 132.5q0 51 -28 90.5t-72.5 62t-94 33.5t-100.5 11h-43v73h49q101 0 174.5 42.5t73.5 119.5q0 61 -49 96t-131 35q-115 0 -225 -71l-37 55q18 14 49 31.5t94.5 37t126.5 19.5q120 0 188 -59t68 -142 q0 -61 -43.5 -115t-134.5 -83q97 -22 158 -85.5t61 -150.5q0 -104 -79.5 -179t-225.5 -75q-89 0 -171 27t-134 57z" />
<glyph unicode="&#xb4;" horiz-adv-x="409" d="M0 1237l248 256h162l-334 -256h-76z" />
<glyph unicode="&#xb5;" horiz-adv-x="1216" d="M207 -418v1493h86v-764q0 -56 10 -100t33.5 -80.5t66.5 -56t105 -19.5q79 0 177 39t164 81t114 83v817h86v-1075h-86v166q-35 -27 -77.5 -54t-106.5 -60t-137.5 -54t-141.5 -21q-134 0 -207 70v-465h-86z" />
<glyph unicode="&#xb6;" horiz-adv-x="1224" d="M92 1024q0 410 477 410h84v-1813h-88v993q-223 0 -348 107.5t-125 302.5zM915 -381v1815h89v-1815h-89z" />
<glyph unicode="&#xb7;" horiz-adv-x="481" d="M178 489v187h125v-187h-125z" />
<glyph unicode="&#xb8;" horiz-adv-x="339" d="M0 -301l31 72q28 -13 39 -17.5t29.5 -9t39.5 -4.5q58 0 91.5 26t33.5 80q0 36 -16 75.5t-32 60.5l-17 22h57q3 -3 9 -9.5t20.5 -26t25.5 -40t20 -50t9 -56.5q0 -72 -52 -115t-138 -43q-75 0 -150 35z" />
<glyph unicode="&#xb9;" horiz-adv-x="493" d="M59 1540l209 109h76v-861h-84v775l-162 -82z" />
<glyph unicode="&#xba;" horiz-adv-x="894" d="M139 1110q0 159 79 248.5t228 89.5t229.5 -89.5t80.5 -248.5q0 -157 -80.5 -246.5t-229.5 -89.5t-228 89t-79 247zM221 1110q0 -127 54.5 -197.5t170.5 -70.5t172 70.5t56 197.5q0 128 -56 199t-172 71q-225 0 -225 -270z" />
<glyph unicode="&#xbb;" horiz-adv-x="1409" d="M139 84v100l531 400l-531 399v100l627 -467v-65zM692 84v100l531 400l-531 399v100l627 -467v-65z" />
<glyph unicode="&#xbc;" horiz-adv-x="1576" d="M76 1325l209 109h75v-861h-84v775l-161 -82zM307 0l688 1434h88l-688 -1434h-88zM793 199v63l440 598h110v-592h140v-69h-140v-199h-86v199h-464zM881 268h376v516z" />
<glyph unicode="&#xbd;" horiz-adv-x="1644" d="M76 1325l209 109h75v-861h-84v775l-161 -82zM307 0l688 1434h88l-688 -1434h-88zM934 0v63q0 41 9 76.5t28.5 66t39.5 54.5t53.5 50t59 43.5t66.5 43.5q6 3 9 5l7.5 5t8.5 5.5t8 5.5q51 33 81 55t63 53t48 63t15 68q0 65 -51 105.5t-140 40.5q-69 0 -134.5 -24.5 t-103.5 -53.5l-43 57q137 92 285 92q122 0 196 -59t74 -158q0 -26 -5 -50.5t-17.5 -47.5t-23.5 -41t-34.5 -39.5t-37.5 -34.5t-45.5 -35t-46 -31.5t-51.5 -33t-50 -31.5q-96 -62 -137 -111t-41 -130h492v-72h-582z" />
<glyph unicode="&#xbe;" horiz-adv-x="1830" d="M111 643l43 62q36 -23 108 -48.5t146 -25.5q98 0 163.5 49.5t65.5 132.5q0 51 -28 90.5t-72.5 62t-94 33.5t-100.5 11h-43v73h49q101 0 174.5 42.5t73.5 119.5q0 61 -49 96t-131 35q-116 0 -226 -71l-36 55q18 14 49 31.5t94.5 37t126.5 19.5q120 0 188 -59.5t68 -141.5 q0 -61 -43.5 -115t-134.5 -83q97 -22 158 -85.5t61 -150.5q0 -104 -79.5 -179t-225.5 -75q-89 0 -171 27t-134 57zM563 0l688 1434h88l-688 -1434h-88zM1047 199v63l442 598h108v-592h140v-69h-140v-199h-84v199h-466zM1137 268h376v516z" />
<glyph unicode="&#xbf;" horiz-adv-x="1011" d="M109 309q0 80 33 147t93 115.5t135.5 83t170.5 58.5l10 315h80l12 -371q-103 -24 -178.5 -51.5t-138.5 -68t-95 -96.5t-32 -128q0 -123 88 -188.5t219 -65.5q161 0 373 125l51 -61q-80 -58 -195 -102t-233 -44q-73 0 -141 20t-125.5 59.5t-92 105t-34.5 147.5zM528 1247 v187h125v-187h-125z" />
<glyph unicode="&#xc0;" horiz-adv-x="1372" d="M74 0l565 1434h94l565 -1434h-96l-153 395h-727l-152 -395h-96zM354 477h664l-332 856zM406 1802h159l250 -256h-76z" />
<glyph unicode="&#xc1;" horiz-adv-x="1372" d="M74 0l565 1434h94l565 -1434h-96l-153 395h-727l-152 -395h-96zM354 477h664l-332 856zM557 1546l248 256h162l-332 -256h-78z" />
<glyph unicode="&#xc2;" horiz-adv-x="1372" d="M74 0l565 1434h94l565 -1434h-96l-153 395h-727l-152 -395h-96zM354 477h664l-332 856zM424 1546l192 256h138l196 -256h-78l-186 191l-184 -191h-78z" />
<glyph unicode="&#xc3;" horiz-adv-x="1372" d="M74 0l565 1434h94l565 -1434h-96l-153 395h-727l-152 -395h-96zM354 477h664l-332 856zM399 1597q40 76 76 111t90 35q42 0 88.5 -25.5t86.5 -50.5t67 -25t47.5 18.5t52.5 76.5l66 -25q-37 -74 -74 -109.5t-92 -35.5q-42 0 -88.5 25t-86.5 50t-67 25t-47.5 -18t-52.5 -76 z" />
<glyph unicode="&#xc4;" horiz-adv-x="1372" d="M74 0l565 1434h94l565 -1434h-96l-153 395h-727l-152 -395h-96zM354 477h664l-332 856zM461 1567v159h125v-159h-125zM788 1567v159h123v-159h-123z" />
<glyph unicode="&#xc5;" horiz-adv-x="1372" d="M74 0l565 1434h94l565 -1434h-96l-153 395h-727l-152 -395h-96zM354 477h664l-332 856zM487 1726q0 85 58 144t143 59t144 -59t59 -144q0 -84 -59 -142t-144 -58t-143 57.5t-58 142.5zM555 1726q0 -57 38 -95t95 -38t96 38t39 95t-39 96.5t-96 39.5t-95 -39.5t-38 -96.5z " />
<glyph unicode="&#xc6;" horiz-adv-x="1988" d="M6 0l995 1434h844v-82h-751v-594h626v-82h-626v-594h766v-82h-856v395h-623l-270 -395h-105zM436 477h568v828z" />
<glyph unicode="&#xc7;" horiz-adv-x="1316" d="M154 717q0 153 29.5 277.5t80.5 209.5t121 142.5t148.5 83.5t164.5 26q134 0 259 -59.5t253 -153.5l-57 -63q-51 37 -91.5 63t-104 60t-130.5 52.5t-131 18.5q-198 0 -323 -175t-125 -482t125 -482.5t323 -175.5q64 0 131 18.5t130.5 53t103.5 60.5t92 63l57 -64 q-264 -194 -471 -210q64 -79 64 -158q0 -72 -52.5 -115t-138.5 -43q-77 0 -149 35l29 72q61 -27 89 -30q9 -1 19 -1q58 0 91.5 26t33.5 80q0 58 -45 131q-84 2 -160 30t-143.5 86.5t-116.5 143t-77.5 207.5t-28.5 273z" />
<glyph unicode="&#xc8;" d="M225 0v1434h842v-82h-752v-594h625v-82h-625v-594h764v-82h-854zM373 1802h159l250 -256h-77z" />
<glyph unicode="&#xc9;" d="M225 0v1434h842v-82h-752v-594h625v-82h-625v-594h764v-82h-854zM524 1546l248 256h162l-334 -256h-76z" />
<glyph unicode="&#xca;" d="M225 0v1434h842v-82h-752v-594h625v-82h-625v-594h764v-82h-854zM389 1546l195 256h135l196 -256h-77l-187 191l-184 -191h-78z" />
<glyph unicode="&#xcb;" d="M225 0v1434h842v-82h-752v-594h625v-82h-625v-594h764v-82h-854zM426 1567v159h125v-159h-125zM754 1567v159h123v-159h-123z" />
<glyph unicode="&#xcc;" horiz-adv-x="540" d="M-10 1802h160l249 -256h-75zM225 0v1434h90v-1434h-90z" />
<glyph unicode="&#xcd;" horiz-adv-x="540" d="M143 1546l248 256h162l-334 -256h-76zM225 0v1434h90v-1434h-90z" />
<glyph unicode="&#xce;" horiz-adv-x="540" d="M8 1546l195 256h135l197 -256h-78l-187 191l-184 -191h-78zM225 0v1434h90v-1434h-90z" />
<glyph unicode="&#xcf;" horiz-adv-x="540" d="M45 1567v159h125v-159h-125zM225 0v1434h90v-1434h-90zM373 1567v159h123v-159h-123z" />
<glyph unicode="&#xd0;" horiz-adv-x="1425" d="M76 674v86h155v674h396q150 0 266.5 -40.5t202 -125.5t131 -224t45.5 -327t-45.5 -327t-131 -224t-202 -125.5t-266.5 -40.5h-396v674h-155zM322 82h307q285 0 416 155.5t131 479.5t-131 479.5t-416 155.5h-307v-592h372v-86h-372v-592z" />
<glyph unicode="&#xd1;" horiz-adv-x="1474" d="M225 0v1434h97l837 -1299v1299h90v-1434h-96l-838 1296v-1296h-90zM463 1597q40 76 76 111t90 35q42 0 88 -25.5t86 -50.5t67 -25t48 18.5t53 76.5l65 -25q-37 -74 -74 -109.5t-92 -35.5q-42 0 -88 25t-86 50t-67 25t-48 -18t-53 -76z" />
<glyph unicode="&#xd2;" horiz-adv-x="1488" d="M154 717q0 126 19 233.5t63.5 202t111.5 161t167.5 104.5t227.5 38t228 -38t168.5 -104.5t112 -161t64 -202.5t19.5 -233q0 -124 -19.5 -231.5t-64 -202t-112 -161.5t-168.5 -106t-228 -39t-227.5 39t-167.5 106t-111.5 162t-63.5 202t-19 231zM248 717q0 -112 15 -207 t51.5 -180t92 -143.5t141 -93t195.5 -34.5t196 34.5t142.5 93t92.5 143.5t51.5 180t15.5 207t-15.5 207t-51.5 179.5t-92.5 143.5t-142.5 93t-196 34t-195.5 -34t-141 -93t-92 -143.5t-51.5 -179.5t-15 -207zM463 1802h160l249 -256h-75z" />
<glyph unicode="&#xd3;" horiz-adv-x="1488" d="M154 717q0 126 19 233.5t63.5 202t111.5 161t167.5 104.5t227.5 38t228 -38t168.5 -104.5t112 -161t64 -202.5t19.5 -233q0 -124 -19.5 -231.5t-64 -202t-112 -161.5t-168.5 -106t-228 -39t-227.5 39t-167.5 106t-111.5 162t-63.5 202t-19 231zM248 717q0 -112 15 -207 t51.5 -180t92 -143.5t141 -93t195.5 -34.5t196 34.5t142.5 93t92.5 143.5t51.5 180t15.5 207t-15.5 207t-51.5 179.5t-92.5 143.5t-142.5 93t-196 34t-195.5 -34t-141 -93t-92 -143.5t-51.5 -179.5t-15 -207zM614 1546l248 256h162l-332 -256h-78z" />
<glyph unicode="&#xd4;" horiz-adv-x="1488" d="M154 717q0 126 19 233.5t63.5 202t111.5 161t167.5 104.5t227.5 38t228 -38t168.5 -104.5t112 -161t64 -202.5t19.5 -233q0 -124 -19.5 -231.5t-64 -202t-112 -161.5t-168.5 -106t-228 -39t-227.5 39t-167.5 106t-111.5 162t-63.5 202t-19 231zM248 717q0 -112 15 -207 t51.5 -180t92 -143.5t141 -93t195.5 -34.5t196 34.5t142.5 93t92.5 143.5t51.5 180t15.5 207t-15.5 207t-51.5 179.5t-92.5 143.5t-142.5 93t-196 34t-195.5 -34t-141 -93t-92 -143.5t-51.5 -179.5t-15 -207zM481 1546l195 256h135l197 -256h-78l-187 191l-184 -191h-78z " />
<glyph unicode="&#xd5;" horiz-adv-x="1488" d="M154 717q0 126 19 233.5t63.5 202t111.5 161t167.5 104.5t227.5 38t228 -38t168.5 -104.5t112 -161t64 -202.5t19.5 -233q0 -124 -19.5 -231.5t-64 -202t-112 -161.5t-168.5 -106t-228 -39t-227.5 39t-167.5 106t-111.5 162t-63.5 202t-19 231zM248 717q0 -112 15 -207 t51.5 -180t92 -143.5t141 -93t195.5 -34.5t196 34.5t142.5 93t92.5 143.5t51.5 180t15.5 207t-15.5 207t-51.5 179.5t-92.5 143.5t-142.5 93t-196 34t-195.5 -34t-141 -93t-92 -143.5t-51.5 -179.5t-15 -207zM457 1597q40 76 76 111t90 35q42 0 88 -25.5t86 -50.5t67 -25 t48 18.5t53 76.5l65 -25q-37 -74 -74 -109.5t-92 -35.5q-42 0 -88 25t-86 50t-67 25t-48 -18t-53 -76z" />
<glyph unicode="&#xd6;" horiz-adv-x="1488" d="M154 717q0 126 19 233.5t63.5 202t111.5 161t167.5 104.5t227.5 38t228 -38t168.5 -104.5t112 -161t64 -202.5t19.5 -233q0 -124 -19.5 -231.5t-64 -202t-112 -161.5t-168.5 -106t-228 -39t-227.5 39t-167.5 106t-111.5 162t-63.5 202t-19 231zM248 717q0 -112 15 -207 t51.5 -180t92 -143.5t141 -93t195.5 -34.5t196 34.5t142.5 93t92.5 143.5t51.5 180t15.5 207t-15.5 207t-51.5 179.5t-92.5 143.5t-142.5 93t-196 34t-195.5 -34t-141 -93t-92 -143.5t-51.5 -179.5t-15 -207zM518 1567v159h125v-159h-125zM846 1567v159h123v-159h-123z" />
<glyph unicode="&#xd7;" horiz-adv-x="1228" d="M227 979l56 55l331 -297l328 293l57 -55l-325 -291l327 -293l-55 -53l-332 293l-325 -291l-58 55l324 289z" />
<glyph unicode="&#xd8;" horiz-adv-x="1482" d="M152 717q0 126 19 233.5t63.5 202t111.5 161t167.5 104.5t227.5 38q244 0 389 -139l84 117h97l-127 -174q149 -193 149 -543q0 -124 -19.5 -231.5t-64 -202t-112 -161.5t-168.5 -106t-228 -39q-241 0 -389 138l-84 -115h-94l125 174q-147 191 -147 543zM246 717 q0 -302 108 -467l725 995q-126 129 -338 129q-110 0 -195.5 -34t-141 -93t-92 -143.5t-51.5 -179.5t-15 -207zM403 188q123 -129 338 -129q110 0 196 34.5t142.5 93t92.5 143.5t51.5 180t15.5 207q0 299 -111 467z" />
<glyph unicode="&#xd9;" horiz-adv-x="1423" d="M213 487v947h90v-940q0 -64 7 -116t24 -103t48 -89t75 -67.5t109 -44.5t147 -15q97 0 169.5 22.5t117.5 60.5t72.5 95.5t37.5 118.5t10 138v940h90v-947q0 -112 -26.5 -201.5t-83 -160.5t-155 -109.5t-232.5 -38.5q-109 0 -195 26t-142.5 71t-93.5 110t-53 139.5 t-16 163.5zM432 1802h160l250 -256h-76z" />
<glyph unicode="&#xda;" horiz-adv-x="1423" d="M213 487v947h90v-940q0 -64 7 -116t24 -103t48 -89t75 -67.5t109 -44.5t147 -15q97 0 169.5 22.5t117.5 60.5t72.5 95.5t37.5 118.5t10 138v940h90v-947q0 -112 -26.5 -201.5t-83 -160.5t-155 -109.5t-232.5 -38.5q-109 0 -195 26t-142.5 71t-93.5 110t-53 139.5 t-16 163.5zM584 1546l247 256h162l-334 -256h-75z" />
<glyph unicode="&#xdb;" horiz-adv-x="1421" d="M213 487v947h90v-940q0 -64 7 -116t24 -103t48 -89t75 -67.5t109 -44.5t147 -15q97 0 169.5 22.5t117.5 60.5t72.5 95.5t37.5 118.5t10 138v940h90v-947q0 -112 -26.5 -201.5t-83 -160.5t-155 -109.5t-232.5 -38.5q-109 0 -195 26t-142.5 71t-93.5 110t-53 139.5 t-16 163.5zM451 1546l192 256h137l197 -256h-78l-186 191l-187 -191h-75z" />
<glyph unicode="&#xdc;" horiz-adv-x="1423" d="M213 487v947h90v-940q0 -64 7 -116t24 -103t48 -89t75 -67.5t109 -44.5t147 -15q97 0 169.5 22.5t117.5 60.5t72.5 95.5t37.5 118.5t10 138v940h90v-947q0 -112 -26.5 -201.5t-83 -160.5t-155 -109.5t-232.5 -38.5q-109 0 -195 26t-142.5 71t-93.5 110t-53 139.5 t-16 163.5zM485 1567v159h123v-159h-123zM813 1567v159h123v-159h-123z" />
<glyph unicode="&#xdd;" horiz-adv-x="1263" d="M57 1434h103l471 -793h2l471 793h102l-530 -869v-565h-90v569zM504 1546l248 256h161l-333 -256h-76z" />
<glyph unicode="&#xde;" horiz-adv-x="1318" d="M225 0v1434h90v-273h371q508 0 508 -418q0 -97 -27.5 -171.5t-73.5 -122t-112.5 -78t-138 -42.5t-156.5 -12h-371v-317h-90zM315 399h387q86 0 156 19t125.5 58t86 107t30.5 160t-30.5 158.5t-86 104.5t-125 55.5t-156.5 17.5h-387v-680z" />
<glyph unicode="&#xdf;" horiz-adv-x="1228" d="M193 0v1004q0 111 25.5 194.5t66 131.5t100 77.5t117.5 39t129 9.5q72 0 129.5 -9.5t117.5 -39t100 -78t65.5 -131.5t25.5 -194v-11l-96 -41q-40 23 -108.5 45.5t-135.5 22.5q-94 0 -156.5 -52.5t-62.5 -142.5q0 -36 10.5 -66.5t32 -53t43 -38.5t54.5 -30t54 -21t55 -17 q12 -3 17 -5q173 -53 256.5 -130t83.5 -202q0 -74 -28 -130.5t-74.5 -89.5t-102 -49t-116.5 -16q-184 0 -387 127l45 70q188 -119 338 -119q97 0 168 53t71 150q0 34 -10.5 63.5t-25 51t-41 41.5t-47.5 32.5t-56.5 26.5t-55 20.5l-55.5 18.5q-39 13 -62 21t-60.5 23.5 t-60 30.5t-50 39t-42.5 50.5t-25.5 63t-10.5 79.5q0 133 87.5 206t217.5 73q121 0 252 -60q-2 82 -22.5 143t-52 98t-78 60t-94.5 31t-107 8q-62 0 -110.5 -8.5t-95 -32.5t-77.5 -63.5t-50 -105.5t-19 -154v-1014h-86z" />
<glyph unicode="&#xe0;" horiz-adv-x="1155" d="M119 315q0 92 30.5 162.5t82.5 111.5t113.5 61t131.5 20q56 0 131.5 -11.5t167.5 -30.5t109 -22v150q0 136 -54 200t-194 64q-59 0 -135 -16.5t-127.5 -33t-143.5 -48.5l-38 73q277 103 444 103q156 0 245 -78.5t89 -245.5v-774h-86v154q-196 -177 -416 -177 q-49 0 -95 9.5t-93.5 33.5t-82.5 61t-57 97t-22 137zM209 313q0 -130 72 -191t194 -61q123 0 220.5 49t189.5 136v291q-7 1 -93.5 18t-152.5 26t-123 9q-86 0 -148 -23t-95.5 -63.5t-48.5 -87.5t-15 -103zM303 1493h160l250 -256h-78z" />
<glyph unicode="&#xe1;" horiz-adv-x="1155" d="M119 315q0 92 30.5 162.5t82.5 111.5t113.5 61t131.5 20q56 0 131.5 -11.5t167.5 -30.5t109 -22v150q0 136 -54 200t-194 64q-59 0 -135 -16.5t-127.5 -33t-143.5 -48.5l-38 73q277 103 444 103q156 0 245 -78.5t89 -245.5v-774h-86v154q-196 -177 -416 -177 q-49 0 -95 9.5t-93.5 33.5t-82.5 61t-57 97t-22 137zM209 313q0 -130 72 -191t194 -61q123 0 220.5 49t189.5 136v291q-7 1 -93.5 18t-152.5 26t-123 9q-86 0 -148 -23t-95.5 -63.5t-48.5 -87.5t-15 -103zM455 1237l247 256h162l-334 -256h-75z" />
<glyph unicode="&#xe2;" horiz-adv-x="1153" d="M119 315q0 92 30.5 162.5t82.5 111.5t113.5 61t131.5 20q56 0 131.5 -11.5t167.5 -30.5t109 -22v150q0 136 -54 200t-194 64q-59 0 -135 -16.5t-127.5 -33t-143.5 -48.5l-38 73q277 103 444 103q156 0 245 -78.5t89 -245.5v-774h-86v154q-196 -177 -416 -177 q-49 0 -95 9.5t-93.5 33.5t-82.5 61t-57 97t-22 137zM209 313q0 -130 72 -191t194 -61q123 0 220.5 49t189.5 136v291q-7 1 -93.5 18t-152.5 26t-123 9q-86 0 -148 -23t-95.5 -63.5t-48.5 -87.5t-15 -103zM319 1237l195 256h137l195 -256h-78l-186 190l-185 -190h-78z" />
<glyph unicode="&#xe3;" horiz-adv-x="1155" d="M119 315q0 92 30.5 162.5t82.5 111.5t113.5 61t131.5 20q56 0 131.5 -11.5t167.5 -30.5t109 -22v150q0 136 -54 200t-194 64q-59 0 -135 -16.5t-127.5 -33t-143.5 -48.5l-38 73q277 103 444 103q156 0 245 -78.5t89 -245.5v-774h-86v154q-196 -177 -416 -177 q-49 0 -95 9.5t-93.5 33.5t-82.5 61t-57 97t-22 137zM209 313q0 -130 72 -191t194 -61q123 0 220.5 49t189.5 136v291q-7 1 -93.5 18t-152.5 26t-123 9q-86 0 -148 -23t-95.5 -63.5t-48.5 -87.5t-15 -103zM295 1288q40 76 76 111t90 35q42 0 88 -25t86 -50.5t67 -25.5t48 18 t53 76l65 -24q-37 -74 -74 -110t-92 -36q-42 0 -88 25.5t-86 50.5t-67 25t-48 -18t-53 -76z" />
<glyph unicode="&#xe4;" horiz-adv-x="1155" d="M119 315q0 92 30.5 162.5t82.5 111.5t113.5 61t131.5 20q56 0 131.5 -11.5t167.5 -30.5t109 -22v150q0 136 -54 200t-194 64q-59 0 -135 -16.5t-127.5 -33t-143.5 -48.5l-38 73q277 103 444 103q156 0 245 -78.5t89 -245.5v-774h-86v154q-196 -177 -416 -177 q-49 0 -95 9.5t-93.5 33.5t-82.5 61t-57 97t-22 137zM209 313q0 -130 72 -191t194 -61q123 0 220.5 49t189.5 136v291q-7 1 -93.5 18t-152.5 26t-123 9q-86 0 -148 -23t-95.5 -63.5t-48.5 -87.5t-15 -103zM356 1257v160h125v-160h-125zM684 1257v160h123v-160h-123z" />
<glyph unicode="&#xe5;" horiz-adv-x="1155" d="M119 315q0 92 30.5 162.5t82.5 111.5t113.5 61t131.5 20q56 0 131.5 -11.5t167.5 -30.5t109 -22v150q0 136 -54 200t-194 64q-59 0 -135 -16.5t-127.5 -33t-143.5 -48.5l-38 73q277 103 444 103q156 0 245 -78.5t89 -245.5v-774h-86v154q-196 -177 -416 -177 q-49 0 -95 9.5t-93.5 33.5t-82.5 61t-57 97t-22 137zM209 313q0 -130 72 -191t194 -61q123 0 220.5 49t189.5 136v291q-7 1 -93.5 18t-152.5 26t-123 9q-86 0 -148 -23t-95.5 -63.5t-48.5 -87.5t-15 -103zM381 1417q0 85 58 144t143 59t143.5 -59t58.5 -144t-58.5 -142.5 t-143.5 -57.5t-143 57.5t-58 142.5zM449 1417q0 -57 38 -95t95 -38t96 38t39 95t-39 96t-96 39t-95 -39t-38 -96z" />
<glyph unicode="&#xe6;" horiz-adv-x="1878" d="M119 315q0 92 30.5 162.5t82.5 111.5t113.5 61t131.5 20q56 0 137.5 -15.5t115.5 -24.5t114 -32q5 99 39 195q-6 116 -61 171.5t-185 55.5q-59 0 -135 -16.5t-127.5 -33t-143.5 -48.5l-38 73q277 103 444 103q247 0 311 -183q65 90 160 136.5t209 46.5q203 0 314.5 -127 t111.5 -332q0 -33 -3 -65.5t-6 -49.5l-3 -16h-797q7 -202 106 -327.5t246 -125.5q58 0 117.5 15t120 45t91 47.5t79.5 48.5l55 -66q-135 -80 -200 -109q-137 -59 -261 -59q-112 0 -208 54.5t-156 158.5q-93 -95 -210 -154t-245 -59q-49 0 -95 9.5t-93.5 33.5t-82.5 61 t-57 97t-22 137zM209 313q0 -130 72 -191t194 -61t221.5 53t194.5 146q-46 107 -49 260q-19 5 -71.5 20t-87 24t-82.5 17.5t-85 8.5q-86 0 -148 -23t-95.5 -63.5t-48.5 -87.5t-15 -103zM934 584h717q6 224 -83.5 330t-254.5 106q-164 0 -266 -118.5t-113 -317.5z" />
<glyph unicode="&#xe7;" horiz-adv-x="1069" d="M131 539q0 133 37.5 241.5t101 176.5t143.5 104.5t169 36.5q24 0 49.5 -3t46.5 -7.5t46.5 -13t42.5 -14.5t42.5 -18.5t37.5 -18.5t36 -20.5t31 -18.5t29.5 -18.5t23.5 -15.5l-49 -65q-1 0 -25.5 16t-38.5 24t-44 24.5t-55 27t-56 21.5t-62.5 16.5t-61.5 5.5 q-149 0 -250.5 -131.5t-101.5 -349.5t101.5 -351t250.5 -133q30 0 61.5 5.5t62.5 16.5t56 21.5t55 27t44 24.5t38.5 24t25.5 16l49 -65q-121 -78 -196 -107q-86 -34 -165 -38q64 -84 64 -158q0 -72 -52.5 -115t-138.5 -43q-74 0 -149 35l30 72q27 -13 39 -18t30.5 -9 t39.5 -4q58 0 91.5 26t33.5 80q0 66 -47 134q-83 6 -157.5 45.5t-132.5 108t-92 173.5t-34 232z" />
<glyph unicode="&#xe8;" horiz-adv-x="1167" d="M131 539q0 134 37 241.5t101.5 176t150.5 105t186 36.5q201 0 312.5 -127.5t111.5 -331.5q0 -33 -2.5 -65.5t-5.5 -49.5l-2 -16h-797q7 -202 106 -327.5t246 -125.5q58 0 118 15.5t118.5 44.5t91.5 48t78 48l57 -66q-3 -2 -42 -25t-50 -29t-50 -26.5t-59 -28t-57.5 -22 t-65.5 -20.5t-64.5 -11.5t-71.5 -5.5q-91 0 -171.5 37t-142 106t-97.5 177t-36 242zM223 584h717q6 224 -83.5 330t-254.5 106q-164 0 -266 -118.5t-113 -317.5zM322 1493h161l248 -256h-76z" />
<glyph unicode="&#xe9;" horiz-adv-x="1167" d="M131 539q0 134 37 241.5t101.5 176t150.5 105t186 36.5q201 0 312.5 -127.5t111.5 -331.5q0 -33 -2.5 -65.5t-5.5 -49.5l-2 -16h-797q7 -202 106 -327.5t246 -125.5q58 0 118 15.5t118.5 44.5t91.5 48t78 48l57 -66q-3 -2 -42 -25t-50 -29t-50 -26.5t-59 -28t-57.5 -22 t-65.5 -20.5t-64.5 -11.5t-71.5 -5.5q-91 0 -171.5 37t-142 106t-97.5 177t-36 242zM223 584h717q6 224 -83.5 330t-254.5 106q-164 0 -266 -118.5t-113 -317.5zM475 1237l246 256h164l-334 -256h-76z" />
<glyph unicode="&#xea;" horiz-adv-x="1167" d="M131 539q0 134 37 241.5t101.5 176t150.5 105t186 36.5q201 0 312.5 -127.5t111.5 -331.5q0 -33 -2.5 -65.5t-5.5 -49.5l-2 -16h-797q7 -202 106 -327.5t246 -125.5q58 0 118 15.5t118.5 44.5t91.5 48t78 48l57 -66q-3 -2 -42 -25t-50 -29t-50 -26.5t-59 -28t-57.5 -22 t-65.5 -20.5t-64.5 -11.5t-71.5 -5.5q-91 0 -171.5 37t-142 106t-97.5 177t-36 242zM223 584h717q6 224 -83.5 330t-254.5 106q-164 0 -266 -118.5t-113 -317.5zM340 1237l195 256h135l196 -256h-78l-186 190l-184 -190h-78z" />
<glyph unicode="&#xeb;" horiz-adv-x="1167" d="M131 539q0 134 37 241.5t101.5 176t150.5 105t186 36.5q201 0 312.5 -127.5t111.5 -331.5q0 -33 -2.5 -65.5t-5.5 -49.5l-2 -16h-797q7 -202 106 -327.5t246 -125.5q58 0 118 15.5t118.5 44.5t91.5 48t78 48l57 -66q-3 -2 -42 -25t-50 -29t-50 -26.5t-59 -28t-57.5 -22 t-65.5 -20.5t-64.5 -11.5t-71.5 -5.5q-91 0 -171.5 37t-142 106t-97.5 177t-36 242zM223 584h717q6 224 -83.5 330t-254.5 106q-164 0 -266 -118.5t-113 -317.5zM377 1257v160h125v-160h-125zM705 1257v160h122v-160h-122z" />
<glyph unicode="&#xec;" horiz-adv-x="471" d="M-45 1493h160l250 -256h-76zM193 0v1075h86v-1075h-86z" />
<glyph unicode="&#xed;" horiz-adv-x="471" d="M109 1237l247 256h162l-334 -256h-75zM193 0v1075h86v-1075h-86z" />
<glyph unicode="&#xee;" horiz-adv-x="471" d="M-27 1237l195 256h135l197 -256h-78l-186 190l-185 -190h-78zM193 0v1075h86v-1075h-86z" />
<glyph unicode="&#xef;" horiz-adv-x="471" d="M10 1257v160h125v-160h-125zM193 0v1075h86v-1075h-86zM338 1257v160h123v-160h-123z" />
<glyph unicode="&#xf0;" horiz-adv-x="1222" d="M133 475q0 226 126.5 363t336.5 137q77 0 145 -18t109 -43.5t71.5 -51t42.5 -43.5l13 -18q-15 71 -43 141.5t-69 139.5t-100.5 128t-129.5 95l-170 -115h-125l213 145q-75 21 -137 21q-36 0 -73 -5t-56 -9l-19 -5l-24 72q74 25 174 25q116 0 217 -43l149 102h129 l-202 -137q172 -100 273 -308.5t101 -482.5q0 -136 -27 -241t-70.5 -169.5t-106 -105.5t-126.5 -56.5t-139 -15.5q-224 0 -353.5 135.5t-129.5 362.5zM223 475q0 -195 101.5 -307.5t283.5 -112.5q178 0 281.5 110.5t103.5 311.5q0 202 -100.5 311t-284.5 109 q-183 0 -284 -114.5t-101 -307.5z" />
<glyph unicode="&#xf1;" horiz-adv-x="1218" d="M193 0v1075h86v-168q49 39 109.5 76.5t162 76t188.5 38.5q295 0 295 -326v-772h-86v764q0 56 -10 100t-33.5 80.5t-66.5 56t-105 19.5q-81 0 -179 -39t-163 -81t-112 -83v-817h-86zM326 1268q39 75 75 110t91 35q42 0 88 -25t86 -50t67 -25t48 18t53 76l65 -25 q-37 -74 -74 -109.5t-92 -35.5q-42 0 -88 25t-86 50t-67 25t-48 -18t-53 -76z" />
<glyph unicode="&#xf2;" d="M131 537q0 262 122.5 411.5t350.5 149.5q227 0 350 -149.5t123 -411.5t-123 -411t-350 -149q-228 0 -350.5 149t-122.5 411zM221 537q0 -227 94 -354.5t289 -127.5t289 127.5t94 354.5t-94 355t-289 128t-289 -128t-94 -355zM324 1493h159l250 -256h-76z" />
<glyph unicode="&#xf3;" d="M131 537q0 262 122.5 411.5t350.5 149.5q227 0 350 -149.5t123 -411.5t-123 -411t-350 -149q-228 0 -350.5 149t-122.5 411zM221 537q0 -227 94 -354.5t289 -127.5t289 127.5t94 354.5t-94 355t-289 128t-289 -128t-94 -355zM475 1237l248 256h162l-332 -256h-78z" />
<glyph unicode="&#xf4;" d="M131 537q0 262 122.5 411.5t350.5 149.5q227 0 350 -149.5t123 -411.5t-123 -411t-350 -149q-228 0 -350.5 149t-122.5 411zM221 537q0 -227 94 -354.5t289 -127.5t289 127.5t94 354.5t-94 355t-289 128t-289 -128t-94 -355zM342 1237l195 256h135l196 -256h-77l-187 190 l-184 -190h-78z" />
<glyph unicode="&#xf5;" d="M131 537q0 262 122.5 411.5t350.5 149.5q227 0 350 -149.5t123 -411.5t-123 -411t-350 -149q-228 0 -350.5 149t-122.5 411zM221 537q0 -227 94 -354.5t289 -127.5t289 127.5t94 354.5t-94 355t-289 128t-289 -128t-94 -355zM317 1288q36 76 69.5 111t86.5 35 q49 0 136 -43t118 -43q29 0 49 14t47 65l68 -24q-38 -76 -72 -111t-86 -35q-48 0 -134.5 43t-117.5 43q-30 0 -50 -14t-48 -65z" />
<glyph unicode="&#xf6;" d="M131 537q0 262 122.5 411.5t350.5 149.5q227 0 350 -149.5t123 -411.5t-123 -411t-350 -149q-228 0 -350.5 149t-122.5 411zM221 537q0 -227 94 -354.5t289 -127.5t289 127.5t94 354.5t-94 355t-289 128t-289 -128t-94 -355zM379 1257v160h125v-160h-125zM707 1257v160 h122v-160h-122z" />
<glyph unicode="&#xf7;" horiz-adv-x="1228" d="M109 643v78h1011v-78h-1011zM516 350q0 37 30 63.5t70 26.5q39 0 69 -27t30 -63t-30 -63t-69 -27q-40 0 -70 26.5t-30 63.5zM516 1016q0 37 30 63.5t70 26.5q39 0 69 -27t30 -63t-30 -63t-69 -27q-40 0 -70 26.5t-30 63.5z" />
<glyph unicode="&#xf8;" horiz-adv-x="1204" d="M129 537q0 262 122.5 411.5t350.5 149.5q180 0 299 -99l57 76h95l-99 -131q121 -145 121 -407t-123 -411t-350 -149q-184 0 -301 97l-55 -74h-94l96 129q-119 146 -119 408zM219 537q0 -217 82 -338l551 735q-92 86 -250 86q-195 0 -289 -128t-94 -355zM350 139 q93 -84 252 -84q195 0 289 127.5t94 354.5q0 212 -82 337z" />
<glyph unicode="&#xf9;" horiz-adv-x="1218" d="M184 303v772h86v-764q0 -56 10 -100t33.5 -80.5t66.5 -56t105 -19.5q79 0 177 39t164 81t114 83v817h86v-1075h-86v166q-35 -27 -77.5 -54t-106.5 -60t-137.5 -54t-141.5 -21q-84 0 -143.5 27t-91 75t-45 102.5t-13.5 121.5zM324 1493h159l250 -256h-76z" />
<glyph unicode="&#xfa;" horiz-adv-x="1218" d="M184 303v772h86v-764q0 -56 10 -100t33.5 -80.5t66.5 -56t105 -19.5q79 0 177 39t164 81t114 83v817h86v-1075h-86v166q-35 -27 -77.5 -54t-106.5 -60t-137.5 -54t-141.5 -21q-84 0 -143.5 27t-91 75t-45 102.5t-13.5 121.5zM475 1237l248 256h162l-332 -256h-78z" />
<glyph unicode="&#xfb;" horiz-adv-x="1218" d="M184 303v772h86v-764q0 -56 10 -100t33.5 -80.5t66.5 -56t105 -19.5q79 0 177 39t164 81t114 83v817h86v-1075h-86v166q-35 -27 -77.5 -54t-106.5 -60t-137.5 -54t-141.5 -21q-84 0 -143.5 27t-91 75t-45 102.5t-13.5 121.5zM342 1237l193 256h137l196 -256h-77l-187 190 l-184 -190h-78z" />
<glyph unicode="&#xfc;" horiz-adv-x="1218" d="M184 303v772h86v-764q0 -56 10 -100t33.5 -80.5t66.5 -56t105 -19.5q79 0 177 39t164 81t114 83v817h86v-1075h-86v166q-35 -27 -77.5 -54t-106.5 -60t-137.5 -54t-141.5 -21q-84 0 -143.5 27t-91 75t-45 102.5t-13.5 121.5zM379 1257v160h125v-160h-125zM707 1257v160 h122v-160h-122z" />
<glyph unicode="&#xfd;" horiz-adv-x="1105" d="M76 1075h96l381 -971l379 971h98l-610 -1493h-98l188 424zM424 1237l248 256h162l-332 -256h-78z" />
<glyph unicode="&#xfe;" d="M193 -418v1911h86v-571q181 176 393 176q83 0 153.5 -31t127.5 -95t89.5 -175.5t32.5 -259.5t-32.5 -259t-89.5 -175t-127.5 -95t-153.5 -31q-119 0 -219 51.5t-174 125.5v-572h-86zM279 250q73 -83 177.5 -139t219.5 -56q151 0 230 128t79 354q0 227 -79 355t-230 128 q-115 0 -219 -56.5t-178 -140.5v-573z" />
<glyph unicode="&#xff;" horiz-adv-x="1105" d="M76 1075h96l381 -971l379 971h98l-610 -1493h-98l188 424zM328 1257v160h125v-160h-125zM655 1257v160h123v-160h-123z" />
<glyph unicode="&#x152;" horiz-adv-x="2230" d="M154 717q0 126 19 233.5t63.5 202t111.5 161t167.5 104.5t227.5 38q358 0 504 -295v273h842v-82h-752v-594h625v-82h-625v-594h764v-82h-854v272q-146 -295 -504 -295q-127 0 -227.5 39t-167.5 106t-111.5 162t-63.5 202t-19 231zM248 717q0 -112 15 -207t51.5 -180 t92 -143.5t141 -93t195.5 -34.5t196 34.5t142.5 93t92.5 143.5t51.5 180t15.5 207t-15.5 207t-51.5 179.5t-92.5 143.5t-142.5 93t-196 34t-195.5 -34t-141 -93t-92 -143.5t-51.5 -179.5t-15 -207z" />
<glyph unicode="&#x153;" horiz-adv-x="2023" d="M131 537q0 262 122.5 411.5t350.5 149.5q160 0 269 -76t161 -217q56 142 169.5 217.5t260.5 75.5q201 0 312.5 -127.5t111.5 -331.5q0 -33 -2.5 -65.5t-5.5 -49.5l-2 -16h-797q7 -203 105.5 -328t245.5 -125q58 0 118.5 15.5t119.5 44.5t91 47.5t78 48.5l55 -66 q-136 -81 -201 -109q-135 -59 -257 -59q-132 0 -240 75.5t-162 215.5q-52 -140 -161 -215.5t-269 -75.5q-228 0 -350.5 149t-122.5 411zM221 537q0 -227 94 -354.5t289 -127.5t289 127.5t94 354.5t-94 355t-289 128t-289 -128t-94 -355zM1081 584h717q4 224 -85 330 t-253 106q-165 0 -266.5 -118.5t-112.5 -317.5z" />
<glyph unicode="&#x178;" horiz-adv-x="1263" d="M57 1434h103l471 -793h2l471 793h102l-530 -869v-565h-90v569zM406 1567v159h124v-159h-124zM735 1567v159h121v-159h-121z" />
<glyph unicode="&#x2c6;" horiz-adv-x="526" d="M0 1237l195 256h135l196 -256h-77l-187 190l-184 -190h-78z" />
<glyph unicode="&#x2dc;" horiz-adv-x="573" d="M0 1288q40 76 76 111t90 35q33 0 70 -16t63.5 -34.5t56.5 -34.5t52 -16q27 0 47.5 18t52.5 76l65 -24q-37 -75 -73.5 -110.5t-91.5 -35.5q-42 0 -88.5 25.5t-86.5 50.5t-67 25t-47.5 -18t-52.5 -76z" />
<glyph unicode="&#x2000;" horiz-adv-x="964" />
<glyph unicode="&#x2001;" horiz-adv-x="1929" />
<glyph unicode="&#x2002;" horiz-adv-x="964" />
<glyph unicode="&#x2003;" horiz-adv-x="1929" />
<glyph unicode="&#x2004;" horiz-adv-x="643" />
<glyph unicode="&#x2005;" horiz-adv-x="482" />
<glyph unicode="&#x2006;" horiz-adv-x="321" />
<glyph unicode="&#x2007;" horiz-adv-x="321" />
<glyph unicode="&#x2008;" horiz-adv-x="241" />
<glyph unicode="&#x2009;" horiz-adv-x="385" />
<glyph unicode="&#x200a;" horiz-adv-x="107" />
<glyph unicode="&#x2010;" horiz-adv-x="892" d="M178 541v86h537v-86h-537z" />
<glyph unicode="&#x2011;" horiz-adv-x="892" d="M178 541v86h537v-86h-537z" />
<glyph unicode="&#x2012;" horiz-adv-x="892" d="M178 541v86h537v-86h-537z" />
<glyph unicode="&#x2013;" horiz-adv-x="1163" d="M178 541v86h807v-86h-807z" />
<glyph unicode="&#x2014;" horiz-adv-x="1374" d="M178 541v86h1018v-86h-1018z" />
<glyph unicode="&#x2018;" horiz-adv-x="458" d="M147 1233l115 242l43 -41l-76 -201h60v-186h-119z" />
<glyph unicode="&#x2019;" horiz-adv-x="444" d="M154 1047l75 200h-59v187h119l22 -187l-114 -241z" />
<glyph unicode="&#x201a;" horiz-adv-x="475" d="M158 -201l75 201h-59v186h119l22 -186l-114 -242z" />
<glyph unicode="&#x201c;" horiz-adv-x="780" d="M147 1233l115 242l43 -41l-76 -201h60v-186h-119zM467 1233l117 242l43 -41l-76 -201h59v-186h-121z" />
<glyph unicode="&#x201d;" horiz-adv-x="765" d="M154 1047l75 200h-59v187h119l22 -187l-114 -241zM473 1047l76 200h-60v187h121l23 -187l-117 -241z" />
<glyph unicode="&#x201e;" horiz-adv-x="796" d="M158 -201l75 201h-59v186h119l22 -186l-114 -242zM477 -201l76 201h-59v186h120l23 -186l-117 -242z" />
<glyph unicode="&#x2022;" horiz-adv-x="858" d="M205 582q0 94 64.5 159.5t158.5 65.5t159.5 -65.5t65.5 -159.5t-65.5 -159t-159.5 -65t-158.5 65t-64.5 159z" />
<glyph unicode="&#x2026;" horiz-adv-x="1202" d="M174 0v186h125v-186h-125zM539 0v186h125v-186h-125zM903 0v186h125v-186h-125z" />
<glyph unicode="&#x202f;" horiz-adv-x="385" />
<glyph unicode="&#x2039;" horiz-adv-x="856" d="M90 551v65l627 467v-100l-533 -399l533 -400v-100z" />
<glyph unicode="&#x203a;" horiz-adv-x="856" d="M139 84v100l531 400l-531 399v100l627 -467v-65z" />
<glyph unicode="&#x205f;" horiz-adv-x="482" />
<glyph unicode="&#x20ac;" horiz-adv-x="1443" d="M125 494v77h131q-6 68 -6 146q0 69 6 133h-131v78h139q22 135 74 238.5t124 165.5t156 93t177 31q223 0 512 -213l-58 -63q-51 37 -92 63t-104 60t-130 52.5t-130 18.5q-161 0 -276.5 -117t-154.5 -329h652v-78h-664q-6 -65 -6 -133q0 -56 8 -146h662v-77h-649 q42 -208 156 -321.5t272 -113.5q63 0 130 18.5t130.5 53t104 60.5t91.5 63l58 -64q-289 -213 -512 -213q-92 0 -175 30.5t-154.5 91.5t-123.5 162t-76 233h-141z" />
<glyph unicode="&#x2122;" horiz-adv-x="1363" d="M156 1370v64h417v-64h-172v-395h-77v395h-168zM659 975v459h84l175 -308l176 308h82v-459h-78v344l-154 -268h-51l-156 274v-350h-78z" />
<glyph unicode="&#xe000;" horiz-adv-x="1075" d="M0 0v1075h1075v-1075h-1075z" />
</font>
</defs>
</svg>
